<?xml version="1.0" encoding="utf-8"?>
<!-- Generator: Adobe Illustrator 26.5.0, SVG Export Plug-In . SVG Version: 6.00 Build 0)  -->
<svg version="1.1" id="Layer_1" xmlns="http://www.w3.org/2000/svg" xmlns:xlink="http://www.w3.org/1999/xlink" x="0px" y="0px"
	 viewBox="0 0 300 300" style="enable-background:new 0 0 300 300;" xml:space="preserve">
<style type="text/css">
	.st0{fill:none;stroke:#231F20;stroke-width:5.8059;stroke-linecap:round;stroke-miterlimit:10;}
	.st1{fill:none;stroke:#231F20;stroke-width:5.8059;stroke-miterlimit:10;}
</style>
<g>
	<path class="st0" d="M133.5,174.2c0,0-11.7,9.2-33.4,9.5c-21.7,0.3-34.2-8.5-34.2-8.5s-32.4,33-34.2,39.5c-1.8,6.5,10,1.5,15.5,3.8
		c5.5,2.3,3.8,8.8,0,8.8s-33.9,2.8-36.2-1.7c-2.3-4.5,6.8-38.5,9-46.2c2.2-7.7,6.3-55.6,18.4-72.9s23.9-24.8,29.2-27.4
		c12.2-5.9,25.9-8.8,37.2-8.2c13.2,0.7,60.7,5.2,60.7,5.2s11.3-2.9,20-2.9s18.9,5.9,18.9,5.9s28.9,5.3,33.4,6.5
		c4.5,1.2,2.8-4.5,8.8-4.8c6-0.3,9.8,3.5,10.5,6.8s-4.7,8.3-4.7,8.3s17.4,5,20.5,12.8c3.2,7.8,1.5,12.5,1.5,12.5s11,5.5,14.4,13.4
		s-13,12.5-22.2,13.5c-5.3,0.8-17.7-4.3-25.2-4.3s-46.4,8.3-46.4,8.3s-7.3,20.6-13.2,27.2c-3.4,3.8-20.8,17.8-22.4,32.9
		c-0.8,8.2,8.9-2.2,18.2,8.8c8,9.5-17,7.7-17,7.7s-18.7,0-19.9-3.7c-1.2-3.7,4-79.9,13.5-94.1"/>
	<path class="st1" d="M67.4,176.1c0.5,4.2,14,50.3,14,50.3s33,2.2,35.8,0c2.8-2.2-1.8-5.7-2.3-5.6c-0.6,0.1-7.9-3.7-16.8-2.8
		c-0.8-6.8,2-34.3,2-34.3"/>
	<path class="st0" d="M210.1,158.7c0,0-2,14.5-3.7,15c-1.7,0.5,18.2,16.8,18.6,22.8s1.9,12.3,0,16.7s-8.3,13.9-12.4,14.8
		c-4.1,0.9-5.1-7.3-4.3-9.5s6.8-12.3,3.8-12.1c-2.9,0.2-41.8-13.7-39.5-17.5"/>
	<path class="st0" d="M77.7,138.2c0,0,5.8,12.9-11.8,37"/>
</g>
</svg>
