<?xml version="1.0" encoding="utf-8"?>
<!-- Generator: Adobe Illustrator 26.5.0, SVG Export Plug-In . SVG Version: 6.00 Build 0)  -->
<svg version="1.1" id="Layer_1" xmlns="http://www.w3.org/2000/svg" xmlns:xlink="http://www.w3.org/1999/xlink" x="0px" y="0px"
	 viewBox="0 0 300 300" style="enable-background:new 0 0 300 300;" xml:space="preserve">
<style type="text/css">
	.st0{fill:#FFFFFF;}
	.st1{fill:none;stroke:#FFFFFF;stroke-width:4;stroke-linecap:round;stroke-miterlimit:10;}
	.st2{fill:none;stroke:#FFFFFF;stroke-width:3.9449;stroke-miterlimit:10;}
	.st3{fill:none;stroke:#FFFFFF;stroke-width:7;stroke-linecap:round;stroke-linejoin:round;stroke-miterlimit:10;}
	.st4{fill:none;stroke:#FFFFFF;stroke-width:6;stroke-miterlimit:10;}
</style>
<g>
	<path class="st0" d="M196.6,113.8l-50.7,37c-0.1,0-0.1,0.1-0.2,0.1l-41.3,50.4c-0.7,0.8,0.4,1.9,1.2,1.3l52.3-39.6
		c0.1,0,0.1-0.1,0.1-0.1l39.8-47.9C198.4,114.3,197.4,113.2,196.6,113.8z M158,157.6c-0.6,3.2-3.7,5.3-6.9,4.7
		c-1-0.2-1.8-0.6-2.5-1.1c0,0,0,0,0,0c-1.7-1.3-2.6-3.5-2.2-5.7c0.6-3.2,3.7-5.3,6.9-4.8c1,0.2,1.8,0.6,2.5,1.1c0,0,0,0,0,0
		C157.5,153.1,158.4,155.3,158,157.6z"/>
	<g>
		<path class="st1" d="M61.7,175.2c-1.9-10.4-1.9-21.2,0.1-32.2c5.5-29.9,25.3-53.5,51-65.3"/>
		<path class="st1" d="M165.9,247.6c-10.4,1.9-21.2,1.9-32.2-0.1c-29.3-5.4-52.7-24.6-64.6-49.6"/>
		<path class="st1" d="M238.3,143.5c1.9,10.4,1.9,21.2-0.1,32.2c-5.4,29.3-24.6,52.7-49.6,64.6"/>
		<path class="st1" d="M134.1,71c10.4-1.9,21.2-1.9,32.2,0.1c29.3,5.4,52.7,24.6,64.6,49.6"/>
		<circle class="st2" cx="115.8" cy="52.9" r="11"/>
		<line class="st3" x1="123.1" y1="75.7" x2="127.5" y2="89.3"/>
		<line class="st3" x1="233.5" y1="132.5" x2="219.9" y2="136.8"/>
		<line class="st3" x1="172.4" y1="228.9" x2="176.8" y2="242.5"/>
		<line class="st3" x1="80" y1="181.8" x2="66.4" y2="186.2"/>
		<circle class="st4" cx="150" cy="159.3" r="98.8"/>
	</g>
</g>
</svg>
