<?xml version="1.0" encoding="utf-8"?>
<!-- Generator: Adobe Illustrator 26.5.0, SVG Export Plug-In . SVG Version: 6.00 Build 0)  -->
<svg version="1.1" id="Layer_1" xmlns="http://www.w3.org/2000/svg" xmlns:xlink="http://www.w3.org/1999/xlink" x="0px" y="0px"
	 viewBox="0 0 300 300" style="enable-background:new 0 0 300 300;" xml:space="preserve">
<style type="text/css">
	.st0{fill:none;stroke:#FFFFFF;stroke-width:6.3891;stroke-linecap:round;stroke-linejoin:round;stroke-miterlimit:10;}
</style>
<g>
	<polyline class="st0" points="118,155.3 89.1,110.9 22.9,221.8 93.2,221.8 187,68.2 281.1,221.8 108.8,221.8 	"/>
	<path class="st0" d="M72.7,138.3c2.8,0.1,4.8,0.6,8.1,1.7c10.5,3.4,14.8,7.9,29.2,4.7"/>
	<path class="st0" d="M161.5,112.1c3.7,5.6,6.9,8,12.3,8c4.2,0,8.8-1.7,12-3.2c4.2-2,9.2-0.1,11.1,4.1c1.4,3,3,6.3,6.3,7.9
		c4.6,2.3,10.3,4.1,17.7-4.5"/>
</g>
</svg>
