<?xml version="1.0" encoding="utf-8"?>
<!-- Generator: Adobe Illustrator 26.5.0, SVG Export Plug-In . SVG Version: 6.00 Build 0)  -->
<svg version="1.1" id="Layer_1" xmlns="http://www.w3.org/2000/svg" xmlns:xlink="http://www.w3.org/1999/xlink" x="0px" y="0px"
	 viewBox="0 0 300 300" style="enable-background:new 0 0 300 300;" xml:space="preserve">
<style type="text/css">
	.st0{fill:none;stroke:#FFFFFF;stroke-width:7.5129;stroke-linecap:round;stroke-linejoin:round;stroke-miterlimit:10;}
</style>
<g>
	<path class="st0" d="M93.2,127c-4,1.2-8.1,2-11.9,2c-16.2,0-33.6-16-33.6-16S35,132.8,14.5,134.4v45.2l33.6-14c0,0,16.7,14,37,14
		s35.7-18.3,35.7-18.3s13.3,18.3,34.1,18.3s38.3-18.3,38.3-18.3s9.8,18.3,31.1,18.3s32.8-18.3,32.8-18.3s15.3,23.3,27.8,19.9"/>
	<path class="st0" d="M14.5,84c15.7,2.2,33.6-16.5,33.6-16.5S57,84,81.7,84S120,67.6,120,67.6S129.5,84,151.1,84
		s33.2-16.5,33.2-16.5S195.7,84,217.1,84s37.8-16.5,37.8-16.5S273,87.7,281,84v49.2c-9.5,0.3-24.8-17.2-24.8-17.2s-18.7,14-37,14
		s-34.5-16.5-34.5-16.5s-9.2,18.9-31.1,18.9s-35.3-17.9-35.3-17.9s-5.3,3.7-12.6,7.3"/>
	<path class="st0" d="M104.3,223.3c-4.5,2.6-14.6,3.8-18.5,3.8c-16.2,0-33.6-16-33.6-16S39.5,230.8,19,232.4"/>
	<path class="st0" d="M200.3,220.3c-6.7-4.2-11-8.6-11-8.6s-9.2,18.9-31.1,18.9s-35.3-17.9-35.3-17.9s-8.6,6.4-18.5,10.7"/>
	<path class="st0" d="M285.5,182.1v49.2c-9.5,0.3-24.8-17.2-24.8-17.2s-18.7,14-37,14c-4.7,0-8.4-0.7-12.6-2.4"/>
</g>
</svg>
