<svg xmlns="http://www.w3.org/2000/svg" version="1.1" xmlns:xlink="http://www.w3.org/1999/xlink" xmlns:svgjs="http://svgjs.dev/svgjs" width="1000" height="1000" viewBox="0 0 1000 1000"><rect width="1000" height="1000" fill="#000000"></rect><g transform="matrix(0.7,0,0,0.7,149.5757575872529,302.2522091460809)"><svg viewBox="0 0 396 224" data-background-color="#97978d" preserveAspectRatio="xMidYMid meet" height="565" width="1000" xmlns="http://www.w3.org/2000/svg" xmlns:xlink="http://www.w3.org/1999/xlink"><defs></defs><g id="tight-bounds" transform="matrix(1,0,0,1,0.2400000065030099,-0.0012511977803200125)"><svg viewBox="0 0 395.52 224.00250239556064" height="224.00250239556064" width="395.52"><g><svg viewBox="0 0 395.52 224.00250239556064" height="224.00250239556064" width="395.52"><g transform="matrix(1,0,0,1,0,189.0924486098759)"><svg viewBox="0 0 395.52 34.91005378568473" height="34.91005378568473" width="395.52"><g><svg viewBox="0 0 395.52 34.91005378568473" height="34.91005378568473" width="395.52"><g><svg viewBox="0 0 395.52 34.91005378568473" height="34.91005378568473" width="395.52"><g transform="matrix(1,0,0,1,0,0)"><svg width="395.52" viewBox="0.30000001192092896 -31.5 362.52001953125 32" height="34.91005378568473" data-palette-color="#c8c8c8"><path d="M16.9-15.18Q16.9-12.45 17.48-11.7 18.05-10.95 19.1-10.95 20.15-10.95 22.25-11.35L22.25-11.35 23 0Q19.4 0.5 16.25 0.5L16.25 0.5Q8.15 0.5 4.23-3.33 0.3-7.15 0.3-15.73 0.3-24.3 4.35-27.9 8.4-31.5 17.05-31.5L17.05-31.5Q19.25-31.5 23-31L23-31 22.15-19.05Q20.15-19.3 19.07-19.3 18-19.3 17.45-18.6 16.9-17.9 16.9-15.18ZM49.85-10.2L49.85-10.2Q49.85 0.5 37 0.5L37 0.5Q30.65 0.5 24.35-1L24.35-1 24.75-10.1 36.25-7.9 36.25-8.8Q32.9-9.5 30.8-10.23 28.7-10.95 26.9-12.25L26.9-12.25Q23.4-14.75 23.4-20.23 23.4-25.7 26.72-28.6 30.05-31.5 36.2-31.5 42.35-31.5 49.05-30.45L49.05-30.45 48.1-20.5 36.95-22.2 36.95-21.25Q43.65-20.35 46.75-18.03 49.85-15.7 49.85-10.2ZM76.3-10.2L76.3-10.2Q76.3 0.5 63.45 0.5L63.45 0.5Q57.1 0.5 50.8-1L50.8-1 51.2-10.1 62.7-7.9 62.7-8.8Q59.35-9.5 57.25-10.23 55.15-10.95 53.35-12.25L53.35-12.25Q49.85-14.75 49.85-20.23 49.85-25.7 53.17-28.6 56.5-31.5 62.65-31.5 68.8-31.5 75.5-30.45L75.5-30.45 74.55-20.5 63.4-22.2 63.4-21.25Q70.09-20.35 73.2-18.03 76.3-15.7 76.3-10.2ZM113.99-9.35L113.99 0 86.44-0.05 86.04-7.75 95.34-20.85 85.79-20.85 85.14-31.05 113.29-31.05 113.69-23.35 105.39-9.35 113.99-9.35ZM138.34-8.95L137.59 0 115.09 0 115.09-31.05 138.54-31.05 137.79-20.85 129.19-20.85 129.19-19.05 137.59-19.05 137.09-10.75 129.19-10.75 129.19-8.95 138.34-8.95ZM170.14-31.05L170.14 0 157.34 0 151.69-9.95 151.69 0 139.54 0 139.54-31.05 152.69-31.05 157.89-21 157.89-31.05 170.14-31.05ZM208.98-30.3L207.68-19.6Q198.23-20.5 197.41-20.5 196.58-20.5 196.36-20.25 196.13-20 196.13-19.15L196.13-19.15 196.13-7.85 197.73-7.85 197.73-16.9 210.03-16.9 210.03 0 200.33 0 199.83-1.3 199.63-1.3Q197.03 0.5 192.83 0.5L192.83 0.5Q180.18 0.5 180.18-15.65L180.18-15.65Q180.18-23.65 184.01-27.58 187.83-31.5 196.73-31.5L196.73-31.5Q201.88-31.5 208.98-30.3L208.98-30.3ZM238.13-31.05L244.18 0 229.68 0 228.88-4.75 224.98-4.75 224.13 0 210.13 0 216.18-31.05 238.13-31.05ZM226.18-11.4L227.78-11.4 227.78-17.6 226.18-17.6 226.18-11.4ZM261.28-31.05Q267.98-31.05 271.08-28.6 274.18-26.15 274.18-21.08 274.18-16 271.03-13.2L271.03-13.2 275.18 0 261.58 0 259.78-9.65 258.88-9.65 258.88 0 244.78 0 244.78-31.05 261.28-31.05ZM258.68-17L260.28-17 260.28-22.1 258.68-22.1 258.68-17ZM306.47-16.2L306.47-16.2Q306.47 0 289.37 0L289.37 0 275.92 0 275.92-31.05 289.67-31.05Q298.82-31.05 302.65-27.23 306.47-23.4 306.47-16.2ZM289.62-7.85L291.22-7.85 291.22-21.75 289.62-21.75 289.62-7.85ZM331.02-8.95L330.27 0 307.77 0 307.77-31.05 331.22-31.05 330.47-20.85 321.87-20.85 321.87-19.05 330.27-19.05 329.77-10.75 321.87-10.75 321.87-8.95 331.02-8.95ZM362.82-31.05L362.82 0 350.02 0 344.37-9.95 344.37 0 332.22 0 332.22-31.05 345.37-31.05 350.57-21 350.57-31.05 362.82-31.05Z" opacity="1" transform="matrix(1,0,0,1,0,0)" fill="#ffffff" class="undefined-text-0" data-fill-palette-color="primary" id="text-0"></path></svg></g></svg></g></svg></g></svg></g><g transform="matrix(1,0,0,1,111.45520155257135,0)"><svg viewBox="0 0 172.60959689485728 172.60959689485728" height="172.60959689485728" width="172.60959689485728"><g><svg></svg></g><g id="icon-0"><svg viewBox="0 0 172.60959689485728 172.60959689485728" height="172.60959689485728" width="172.60959689485728"><g><path d="M0 86.305c0-47.665 38.64-86.305 86.305-86.305 47.665 0 86.305 38.64 86.305 86.305 0 47.665-38.64 86.305-86.305 86.305-47.665 0-86.305-38.64-86.305-86.305zM86.305 169.461c45.926 0 83.157-37.23 83.156-83.156 0-45.926-37.23-83.157-83.156-83.157-45.926 0-83.157 37.23-83.157 83.157 0 45.926 37.23 83.157 83.157 83.156z" data-fill-palette-color="accent" fill="#ffffff" stroke="transparent"></path></g><g transform="matrix(1,0,0,1,33.96678977739103,57.13973585268111)"><svg viewBox="0 0 104.67601734007522 58.33012518949505" height="58.33012518949505" width="104.67601734007522"><g><svg xmlns="http://www.w3.org/2000/svg" xmlns:xlink="http://www.w3.org/1999/xlink" version="1.1" x="0" y="0" viewBox="5 24.923999786376953 90 50.15199661254883" enable-background="new 0 0 100 100" xml:space="preserve" height="58.33012518949505" width="104.67601734007522" class="icon-x-0" data-fill-palette-color="accent" id="x-0"><g fill="#636365" data-fill-palette-color="accent"><g fill="#636365" data-fill-palette-color="accent"><polygon points="45.792,75.076 44.335,75.076 44.335,69.548 57.093,69.548 47.732,53.991 52.028,53.991 44.937,42.213     48.483,42.213 41.499,30.61 34.516,42.213 38.056,42.213 30.973,53.991 35.266,53.991 25.909,69.548 38.667,69.548 38.667,75.076     37.209,75.076 37.209,71.005 23.333,71.005 32.69,55.448 28.396,55.448 35.48,43.67 31.938,43.67 41.499,27.783 51.061,43.67     47.514,43.67 54.606,55.448 50.309,55.448 59.669,71.005 45.792,71.005   " fill="#ffffff" data-fill-palette-color="accent"></polygon><polygon points="70.992,55.835 69.535,55.835 69.535,52.021 77.539,52.021 71.52,42.021 74.285,42.021 69.727,34.449     72.004,34.449 67.978,27.751 63.944,34.449 66.225,34.449 61.664,42.021 64.432,42.021 58.412,52.021 66.414,52.021     66.414,55.835 64.957,55.835 64.957,53.479 55.834,53.479 61.854,43.478 59.086,43.478 63.646,35.906 61.367,35.906     67.978,24.924 74.582,35.906 72.305,35.906 76.862,43.478 74.098,43.478 80.117,53.479 70.992,53.479   " fill="#ffffff" data-fill-palette-color="accent"></polygon><polygon points="87.77,74.783 86.313,74.783 86.313,71.649 92.422,71.649 87.732,63.858 89.886,63.858 86.339,57.958     88.108,57.958 85.256,53.212 82.4,57.958 84.178,57.958 80.622,63.858 82.775,63.858 78.087,71.649 84.2,71.649 84.2,74.783     82.743,74.783 82.743,73.106 75.509,73.106 80.197,65.315 78.045,65.315 81.598,59.415 79.821,59.415 85.256,50.385     90.686,59.415 88.915,59.415 92.464,65.315 90.312,65.315 95,73.106 87.77,73.106   " fill="#ffffff" data-fill-palette-color="accent"></polygon><polygon points="17.261,60.242 15.804,60.242 15.804,57.107 21.913,57.107 17.225,49.314 19.381,49.314 15.827,43.416     17.602,43.416 14.748,38.67 11.894,43.416 13.668,43.416 10.114,49.314 12.271,49.314 7.578,57.107 13.687,57.107 13.687,60.242     12.23,60.242 12.23,58.564 5,58.564 9.692,50.771 7.536,50.771 11.088,44.873 9.318,44.873 14.748,35.844 20.177,44.873     18.406,44.873 21.96,50.771 19.803,50.771 24.491,58.564 17.261,58.564   " fill="#ffffff" data-fill-palette-color="accent"></polygon></g></g></svg></g></svg></g></svg></g></svg></g><g></g></svg></g></svg><rect width="395.52" height="224.00250239556064" fill="none" stroke="none" visibility="hidden"></rect></g></svg></g></svg>